<?xml version="1.0" encoding="utf-8"?>
<!-- Generator: Adobe Illustrator 23.0.3, SVG Export Plug-In . SVG Version: 6.00 Build 0)  -->
<svg version="1.1" id="Layer_1" xmlns="http://www.w3.org/2000/svg" xmlns:xlink="http://www.w3.org/1999/xlink" x="0px" y="0px"
	 viewBox="0 0 24 24" style="enable-background:new 0 0 24 24;" xml:space="preserve">
<style type="text/css">
	.st0{fill:#151515;}
</style>
<path class="st0" d="M23.1,8.6C23.1,8.3,23,8,22.8,7.8c-0.2-0.2-0.4-0.4-0.7-0.6C21.8,7.1,21.5,7,21.2,7h-3.7L15,2.5
	c-0.3-0.6-1.1-0.8-1.7-0.5c-0.6,0.3-0.8,1.1-0.5,1.7L14.6,7H9l1.8-3.3c0.3-0.6,0.1-1.4-0.5-1.7C9.8,1.7,9.1,1.9,8.7,2.5L6.2,7H2.8
	C2.5,7,2.2,7.1,1.9,7.2C1.6,7.4,1.4,7.6,1.2,7.8C1,8,0.9,8.3,0.9,8.6c-0.1,0.3-0.1,0.6,0,0.9l2.6,10.6c0.1,0.6,0.5,1.1,0.9,1.5
	c0.5,0.4,1.1,0.6,1.6,0.6c0,0,0,0,0,0h11.8c0,0,0,0,0,0c0.6,0,1.2-0.2,1.6-0.6c0.5-0.4,0.8-0.9,0.9-1.5l2.7-10.6
	C23.2,9.2,23.2,8.9,23.1,8.6z M18.1,19.5C18,19.5,18,19.5,18.1,19.5c-0.1,0.1-0.1,0.1-0.2,0.1c0,0,0,0,0,0H6.1h0c0,0-0.1,0-0.1,0
	c0,0-0.1-0.1-0.1-0.1L3.5,9.5h17.1L18.1,19.5z"/>
</svg>
