<?xml version="1.0" encoding="utf-8"?>
<!-- Generator: Adobe Illustrator 23.0.3, SVG Export Plug-In . SVG Version: 6.00 Build 0)  -->
<svg version="1.1" id="Layer_1" xmlns="http://www.w3.org/2000/svg" xmlns:xlink="http://www.w3.org/1999/xlink" x="0px" y="0px"
	 viewBox="0 0 17 17" style="enable-background:new 0 0 17 17;" xml:space="preserve">
<path d="M7.2,8.2H4.5c-1.3,0-2.3-1-2.3-2.3V3.2c0-1.3,1-2.3,2.3-2.3h2.7c1.3,0,2.3,1,2.3,2.3v2.7C9.5,7.1,8.4,8.2,7.2,8.2z M4.5,2.8
	C4.3,2.8,4.2,3,4.2,3.2v2.7c0,0.2,0.1,0.3,0.3,0.3h2.7c0.2,0,0.3-0.1,0.3-0.3V3.2c0-0.2-0.1-0.3-0.3-0.3H4.5z"/>
<path d="M7.2,16.2H4.5c-1.3,0-2.3-1-2.3-2.3v-2.7c0-1.3,1-2.3,2.3-2.3h2.7c1.3,0,2.3,1,2.3,2.3v2.7C9.5,15.1,8.4,16.2,7.2,16.2z
	 M4.5,10.8c-0.2,0-0.3,0.1-0.3,0.3v2.7c0,0.2,0.1,0.3,0.3,0.3h2.7c0.2,0,0.3-0.1,0.3-0.3v-2.7c0-0.2-0.1-0.3-0.3-0.3H4.5z"/>
<path d="M14.5,12.2h-4c-0.6,0-1-0.4-1-1s0.4-1,1-1h4c0.6,0,1,0.4,1,1S15,12.2,14.5,12.2z"/>
<path d="M13.2,14.8h-2.7c-0.6,0-1-0.4-1-1s0.4-1,1-1h2.7c0.6,0,1,0.4,1,1S13.7,14.8,13.2,14.8z"/>
<path d="M13.2,6.8h-2.7c-0.6,0-1-0.4-1-1s0.4-1,1-1h2.7c0.6,0,1,0.4,1,1S13.7,6.8,13.2,6.8z"/>
<path d="M14.5,4.2h-4c-0.6,0-1-0.4-1-1s0.4-1,1-1h4c0.6,0,1,0.4,1,1S15,4.2,14.5,4.2z"/>
</svg>
