<?xml version="1.0" encoding="utf-8"?>
<!-- Generator: Adobe Illustrator 23.0.3, SVG Export Plug-In . SVG Version: 6.00 Build 0)  -->
<svg version="1.1" id="Layer_1" xmlns="http://www.w3.org/2000/svg" xmlns:xlink="http://www.w3.org/1999/xlink" x="0px" y="0px"
	 viewBox="0 0 17 17" style="enable-background:new 0 0 17 17;" xml:space="preserve">
<path d="M8.8,15.2c-0.3,0-0.5-0.1-0.7-0.3L2.4,9.3C1.6,8.4,1.2,7.3,1.2,6.2s0.5-2.3,1.3-3.1c0.8-0.8,1.9-1.3,3.1-1.3
	c1.2,0,2.3,0.5,3.1,1.3l0.2,0.2L9,3.1c0,0,0,0,0,0c0.8-0.8,1.9-1.3,3.1-1.3s2.3,0.5,3.1,1.3C16,3.9,16.5,5,16.5,6.2S16,8.4,15.2,9.3
	l-5.7,5.7C9.3,15.1,9.1,15.2,8.8,15.2z M5.6,3.8C4.9,3.8,4.3,4,3.9,4.5C3.4,4.9,3.2,5.5,3.2,6.2s0.2,1.2,0.7,1.7l5,5l5-5
	c0.5-0.5,0.7-1.1,0.7-1.7s-0.2-1.2-0.7-1.7c-0.9-0.9-2.5-0.9-3.4,0L9.5,5.3c-0.4,0.4-1,0.4-1.4,0L7.2,4.5C6.8,4,6.2,3.8,5.6,3.8z"/>
</svg>
