<svg width="17" height="16" viewBox="0 0 17 16" fill="none" xmlns="http://www.w3.org/2000/svg">
<path fill-rule="evenodd" clip-rule="evenodd" d="M7.81994 2.12675C7.86598 1.98072 7.95739 1.85318 8.08087 1.76264C8.20435 1.6721 8.35348 1.62329 8.5066 1.62329C8.65972 1.62329 8.80885 1.6721 8.93233 1.76264C9.05581 1.85318 9.14722 1.98072 9.19327 2.12675L10.4333 5.94009H14.4333C14.5919 5.93409 14.7481 5.98018 14.878 6.07131C15.0079 6.16244 15.1044 6.29361 15.1528 6.44476C15.2012 6.59592 15.1987 6.75875 15.1459 6.90839C15.093 7.05802 14.9925 7.18623 14.8599 7.27342L11.6133 9.62675L12.8533 13.4468C12.9023 13.5923 12.9035 13.7496 12.8568 13.8959C12.81 14.0422 12.7178 14.1697 12.5934 14.2597C12.4691 14.3498 12.3192 14.3978 12.1656 14.3967C12.0121 14.3955 11.8629 14.3453 11.7399 14.2534L8.4866 11.8734L5.23994 14.2334C5.11694 14.3253 4.96778 14.3755 4.81423 14.3767C4.66068 14.3778 4.51079 14.3298 4.38645 14.2397C4.26211 14.1496 4.16982 14.0222 4.12307 13.8759C4.07633 13.7296 4.07756 13.5723 4.1266 13.4268L5.3666 9.60675L2.11994 7.25342C1.98732 7.16623 1.8869 7.03802 1.83402 6.88839C1.78113 6.73875 1.77868 6.57592 1.82705 6.42476C1.87542 6.27361 1.97195 6.14244 2.10188 6.05131C2.23181 5.96018 2.38801 5.91409 2.5466 5.92009H6.5466L7.81994 2.12675Z" fill="#FDBC15"/>
</svg>
