<?xml version="1.0" encoding="utf-8"?>
<!-- Generator: Adobe Illustrator 23.0.3, SVG Export Plug-In . SVG Version: 6.00 Build 0)  -->
<svg version="1.1" id="Layer_1" xmlns="http://www.w3.org/2000/svg" xmlns:xlink="http://www.w3.org/1999/xlink" x="0px" y="0px"
	 viewBox="0 0 17 16" style="enable-background:new 0 0 17 16;" xml:space="preserve">
<path d="M12.2,14.9C12.2,14.9,12.2,14.9,12.2,14.9c-0.3,0-0.5-0.1-0.7-0.2l-3-2.2l-3,2.1c-0.2,0.2-0.5,0.2-0.7,0.2
	c-0.3,0-0.5-0.1-0.7-0.2c-0.2-0.2-0.4-0.4-0.4-0.6c-0.1-0.2-0.1-0.5,0-0.8l1.1-3.5l-3-2.1C1.6,7.5,1.5,7.3,1.4,7.1
	c-0.1-0.3-0.1-0.5,0-0.8C1.4,6,1.6,5.8,1.8,5.6C2,5.5,2.3,5.4,2.6,5.4l3.6,0L7.3,2c0.1-0.2,0.2-0.5,0.4-0.6c0.4-0.3,1-0.3,1.4,0
	C9.4,1.5,9.6,1.7,9.7,2l1.1,3.5h3.6c0.3,0,0.5,0.1,0.7,0.2c0.2,0.2,0.4,0.4,0.5,0.6c0.1,0.3,0.1,0.5,0,0.8c-0.1,0.2-0.3,0.5-0.5,0.6
	l-2.9,2.1l1.1,3.5c0.1,0.2,0.1,0.5,0,0.8c-0.1,0.2-0.2,0.5-0.4,0.6C12.7,14.8,12.4,14.9,12.2,14.9z M8.5,11.4c0.1,0,0.2,0,0.3,0.1
	l3.3,2.4c0,0,0.1,0,0.1,0c0,0,0.1,0,0.1,0c0,0,0.1-0.1,0.1-0.1c0,0,0-0.1,0-0.1l-1.2-3.8c-0.1-0.2,0-0.4,0.2-0.6l3.2-2.4
	c0.1,0,0.1-0.1,0.1-0.1c0,0,0-0.1,0-0.1c0,0,0-0.1-0.1-0.1c0,0-0.1,0-0.1,0l-4,0c-0.2,0-0.4-0.1-0.5-0.3L8.7,2.3c0,0,0-0.1-0.1-0.1
	c-0.1-0.1-0.2-0.1-0.3,0c0,0-0.1,0.1-0.1,0.1c0,0,0,0,0,0L7,6.1C7,6.3,6.8,6.4,6.5,6.4h-4c-0.1,0-0.1,0-0.2,0c0,0-0.1,0.1-0.1,0.1
	c0,0,0,0.1,0,0.1c0,0,0,0.1,0.1,0.1l3.3,2.4c0.2,0.1,0.2,0.4,0.2,0.6l-1.2,3.8c0,0,0,0.1,0,0.1c0,0,0,0.1,0.1,0.1c0,0,0.1,0,0.1,0
	c0,0,0.1,0,0.1,0l3.3-2.4C8.3,11.4,8.4,11.4,8.5,11.4z M7.8,2.1L7.8,2.1L7.8,2.1z"/>
</svg>
