<?xml version="1.0" encoding="utf-8"?>
<!-- Generator: Adobe Illustrator 23.0.3, SVG Export Plug-In . SVG Version: 6.00 Build 0)  -->
<svg version="1.1" id="Layer_1" xmlns="http://www.w3.org/2000/svg" xmlns:xlink="http://www.w3.org/1999/xlink" x="0px" y="0px"
	 viewBox="0 0 24 24" style="enable-background:new 0 0 24 24;" xml:space="preserve">
<style type="text/css">
	.st0{fill:#151515;}
</style>
<path class="st0" d="M22.2,21.7l-0.8-2.9c-0.9-3.3-2.9-5.8-5.4-7.1c1.3-1.1,2.2-2.9,2.2-4.8c0-3.4-2.8-6.3-6.3-6.3S5.8,3.5,5.8,7
	c0,1.9,0.9,3.6,2.2,4.8c-2.5,1.3-4.5,3.8-5.4,7.1l-0.8,2.9C1.6,22.3,2,23,2.7,23.2C3.3,23.4,4,23,4.2,22.3L5,19.5
	c1.3-4.6,4.4-6.2,7-6.2c2.6,0,5.7,1.6,7,6.2l0.8,2.9c0.2,0.6,0.7,0.9,1.2,0.9c0.1,0,0.2,0,0.3,0C22,23,22.4,22.3,22.2,21.7z M12,3.2
	c2.1,0,3.8,1.7,3.8,3.8s-1.7,3.8-3.8,3.8C9.9,10.7,8.3,9,8.3,7S9.9,3.2,12,3.2z"/>
</svg>
