<?xml version="1.0" encoding="utf-8"?>
<!-- Generator: Adobe Illustrator 23.0.3, SVG Export Plug-In . SVG Version: 6.00 Build 0)  -->
<svg version="1.1" id="Layer_1" xmlns="http://www.w3.org/2000/svg" xmlns:xlink="http://www.w3.org/1999/xlink" x="0px" y="0px"
	 viewBox="0 0 16 16" style="enable-background:new 0 0 16 16;" xml:space="preserve">
<style type="text/css">
	.st0{fill:#151515;}
</style>
<path class="st0" d="M11.2,6.6c-0.2,0-0.4-0.1-0.5-0.2L8,3.7L5.4,6.3c-0.3,0.3-0.8,0.3-1.1,0S4,5.5,4.3,5.2L7,2.5C7.5,2,8.4,2,9,2.5
	l2.7,2.7C12,5.6,12,6,11.7,6.3C11.6,6.5,11.4,6.6,11.2,6.6z"/>
<path class="st0" d="M8,13.9c-0.4,0-0.7-0.1-1-0.4l-2.7-2.7C4,10.4,4,10,4.3,9.7s0.8-0.3,1.1,0L8,12.3l2.6-2.6
	c0.3-0.3,0.8-0.3,1.1,0s0.3,0.8,0,1.1L9,13.5C8.8,13.7,8.4,13.9,8,13.9z"/>
</svg>
