<?xml version="1.0" encoding="utf-8"?>
<!-- Generator: Adobe Illustrator 23.0.3, SVG Export Plug-In . SVG Version: 6.00 Build 0)  -->
<svg version="1.1" id="Layer_1" xmlns="http://www.w3.org/2000/svg" xmlns:xlink="http://www.w3.org/1999/xlink" x="0px" y="0px"
	 viewBox="0 0 16 16" style="enable-background:new 0 0 16 16;" xml:space="preserve">
<style type="text/css">
	.st0{fill:#151515;}
</style>
<path class="st0" d="M9.2,1.3c-3,0-5.4,2.4-5.4,5.4c0,1.2,0.4,2.4,1.1,3.3l-2.8,2.8c-0.3,0.3-0.3,0.8,0,1.1c0.1,0.1,0.3,0.2,0.5,0.2
	s0.4-0.1,0.5-0.2L6,11.1c0.9,0.7,2,1.1,3.2,1.1c3,0,5.4-2.4,5.4-5.4C14.6,3.8,12.2,1.3,9.2,1.3z M9.2,10.7c-2.2,0-3.9-1.8-3.9-3.9
	S7,2.8,9.2,2.8c2.2,0,3.9,1.8,3.9,3.9S11.4,10.7,9.2,10.7z"/>
</svg>
